<?xml version="1.0" encoding="UTF-8" standalone="no"?>
<!DOCTYPE svg PUBLIC "-//W3C//DTD SVG 1.1//EN" "http://www.w3.org/Graphics/SVG/1.1/DTD/svg11.dtd">
<svg width="100%" height="100%" viewBox="0 0 512 512" version="1.1" xmlns="http://www.w3.org/2000/svg" xmlns:xlink="http://www.w3.org/1999/xlink" xml:space="preserve" xmlns:serif="http://www.serif.com/" style="fill-rule:evenodd;clip-rule:evenodd;stroke-linecap:round;stroke-linejoin:round;stroke-miterlimit:1.5;">
    <g>
        <g transform="matrix(1.64185,0,0,1.64185,-395.604,-254.874)">
            <path d="M396.872,190.322c66.691,-0 120.835,54.144 120.835,120.835c0,66.691 -54.144,120.836 -120.835,120.836c-66.691,-0 -120.836,-54.145 -120.836,-120.836c0,-66.691 54.145,-120.835 120.836,-120.835Zm-0,78.543c23.342,-0 42.292,18.95 42.292,42.292c0,23.342 -18.95,42.293 -42.292,42.293c-23.342,-0 -42.293,-18.951 -42.293,-42.293c0,-23.342 18.951,-42.292 42.293,-42.292Z" style="fill:#2a76b7;stroke:#000;stroke-width:3.05px;"/>
        </g>
        <path d="M153.021,300.426l-121.603,0c-12.259,0 -22.213,-9.953 -22.213,-22.213l0,-44.426c0,-12.26 9.954,-22.213 22.213,-22.213l121.603,-0c-2.366,14.17 -3.627,29.063 -3.627,44.426c-0,15.363 1.261,30.256 3.627,44.426Zm2.273,-100.715l-134.984,-134.984c-6.129,-6.128 -6.129,-16.08 -0,-22.208l22.209,-22.209c6.128,-6.129 16.08,-6.129 22.208,-0l115.408,115.407c-11.009,17.921 -19.579,39.718 -24.841,63.994Zm56.28,-99.431l-0,-68.862c-0,-12.259 9.953,-22.213 22.213,-22.213l44.426,0c12.26,0 22.213,9.954 22.213,22.213l0,68.862c-13.527,-9.988 -28.575,-15.559 -44.426,-15.559c-15.851,0 -30.899,5.571 -44.426,15.559Zm120.291,35.437l115.408,-115.407c6.128,-6.129 16.08,-6.129 22.208,-0l22.209,22.209c6.129,6.128 6.129,16.08 0,22.208l-134.984,134.984c-5.262,-24.276 -13.832,-46.073 -24.841,-63.994Zm27.114,75.857l121.603,-0c12.259,-0 22.213,9.953 22.213,22.213l-0,44.426c-0,12.26 -9.954,22.213 -22.213,22.213l-121.603,0c2.366,-14.17 3.627,-29.063 3.627,-44.426c0,-15.363 -1.261,-30.256 -3.627,-44.426Zm-2.273,100.715l134.984,134.984c6.129,6.128 6.129,16.08 0,22.208l-22.209,22.209c-6.128,6.129 -16.08,6.129 -22.208,0l-115.408,-115.407c11.009,-17.921 19.579,-39.718 24.841,-63.994Zm-56.28,99.431l0,68.862c0,12.259 -9.953,22.213 -22.213,22.213l-44.426,-0c-12.26,-0 -22.213,-9.954 -22.213,-22.213l-0,-68.862c13.527,9.988 28.575,15.559 44.426,15.559c15.851,-0 30.899,-5.571 44.426,-15.559Zm-120.291,-35.437l-115.408,115.407c-6.128,6.129 -16.08,6.129 -22.208,0l-22.209,-22.209c-6.129,-6.128 -6.129,-16.08 -0,-22.208l134.984,-134.984c5.262,24.276 13.832,46.073 24.841,63.994Z" style="fill:#2a76b7;"/>
        <path d="M153.021,300.426l-121.603,0c-12.259,0 -22.213,-9.953 -22.213,-22.213l0,-44.426c0,-12.26 9.954,-22.213 22.213,-22.213l121.603,-0c-2.366,14.17 -3.627,29.063 -3.627,44.426c-0,15.363 1.261,30.256 3.627,44.426Zm-5.837,-5c-1.825,-12.671 -2.79,-25.869 -2.79,-39.426c-0,-13.557 0.965,-26.755 2.79,-39.426l-115.766,-0c-9.5,-0 -17.213,7.713 -17.213,17.213l0,44.426c0,9.5 7.713,17.213 17.213,17.213l115.766,0Zm8.11,-95.715l-134.984,-134.984c-6.129,-6.128 -6.129,-16.08 -0,-22.208l22.209,-22.209c6.128,-6.129 16.08,-6.129 22.208,-0l115.408,115.407c-11.009,17.921 -19.579,39.718 -24.841,63.994Zm-2.806,-9.877c5.075,-19.863 12.364,-37.903 21.355,-53.338l-112.651,-112.651c-4.178,-4.177 -10.961,-4.177 -15.138,0l-22.209,22.209c-4.177,4.177 -4.177,10.96 0,15.138l128.643,128.642Zm59.086,-89.554l-0,-68.862c-0,-12.259 9.953,-22.213 22.213,-22.213l44.426,0c12.26,0 22.213,9.954 22.213,22.213l0,68.862c-13.527,-9.988 -28.575,-15.559 -44.426,-15.559c-15.851,0 -30.899,5.571 -44.426,15.559Zm5,-9.32c12.285,-7.287 25.574,-11.239 39.426,-11.239c13.852,0 27.141,3.952 39.426,11.239l0,-59.542c0,-9.5 -7.713,-17.213 -17.213,-17.213l-44.426,0c-9.5,0 -17.213,7.713 -17.213,17.213l-0,59.542Zm115.291,44.757l115.408,-115.407c6.128,-6.129 16.08,-6.129 22.208,-0l22.209,22.209c6.129,6.128 6.129,16.08 0,22.208l-134.984,134.984c-5.262,-24.276 -13.832,-46.073 -24.841,-63.994Zm6.292,0.779c8.991,15.436 16.28,33.474 21.355,53.338l128.643,-128.642c4.177,-4.178 4.177,-10.961 -0,-15.138l-22.209,-22.209c-4.177,-4.177 -10.96,-4.177 -15.138,0l-112.651,112.651Zm20.822,75.078l121.603,-0c12.259,-0 22.213,9.953 22.213,22.213l-0,44.426c-0,12.26 -9.954,22.213 -22.213,22.213l-121.603,0c2.366,-14.17 3.627,-29.063 3.627,-44.426c0,-15.363 -1.261,-30.256 -3.627,-44.426Zm5.837,5c1.825,12.671 2.79,25.869 2.79,39.426c0,13.557 -0.965,26.755 -2.79,39.426l115.766,0c9.5,0 17.213,-7.713 17.213,-17.213l-0,-44.426c-0,-9.5 -7.713,-17.213 -17.213,-17.213l-115.766,-0Zm-8.11,95.715l134.984,134.984c6.129,6.128 6.129,16.08 0,22.208l-22.209,22.209c-6.128,6.129 -16.08,6.129 -22.208,0l-115.408,-115.407c11.009,-17.921 19.579,-39.718 24.841,-63.994Zm2.806,9.877c-5.075,19.863 -12.364,37.903 -21.355,53.338l112.651,112.651c4.178,4.177 10.961,4.177 15.138,-0l22.209,-22.209c4.177,-4.177 4.177,-10.96 -0,-15.138l-128.643,-128.642Zm-59.086,89.554l0,68.862c0,12.259 -9.953,22.213 -22.213,22.213l-44.426,-0c-12.26,-0 -22.213,-9.954 -22.213,-22.213l-0,-68.862c13.527,9.988 28.575,15.559 44.426,15.559c15.851,-0 30.899,-5.571 44.426,-15.559Zm-5,9.32c-12.285,7.287 -25.574,11.239 -39.426,11.239c-13.852,-0 -27.141,-3.952 -39.426,-11.239l-0,59.542c-0,9.5 7.713,17.213 17.213,17.213l44.426,-0c9.5,-0 17.213,-7.713 17.213,-17.213l0,-59.542Zm-115.291,-44.757l-115.408,115.407c-6.128,6.129 -16.08,6.129 -22.208,0l-22.209,-22.209c-6.129,-6.128 -6.129,-16.08 -0,-22.208l134.984,-134.984c5.262,24.276 13.832,46.073 24.841,63.994Zm-6.292,-0.779c-8.991,-15.436 -16.28,-33.474 -21.355,-53.338l-128.643,128.642c-4.177,4.178 -4.177,10.961 0,15.138l22.209,22.209c4.177,4.177 10.96,4.177 15.138,-0l112.651,-112.651Z"/>
        <g transform="matrix(0.708781,0,0,1.13876,51.4902,-119.764)">
            <circle cx="288.537" cy="329.976" r="150.408" style="fill:none;stroke:#000;stroke-width:12.65px;"/>
        </g>
    </g>
</svg>
